<?xml version="1.0" standalone="no"?>
<!DOCTYPE svg PUBLIC "-//W3C//DTD SVG 20010904//EN"
 "http://www.w3.org/TR/2001/REC-SVG-20010904/DTD/svg10.dtd">
<svg version="1.0" xmlns="http://www.w3.org/2000/svg"
 width="150.000000pt" height="150.000000pt" viewBox="0 0 150.000000 150.000000"
 preserveAspectRatio="xMidYMid meet">

<g transform="translate(0.000000,150.000000) scale(0.100000,-0.100000)"
fill="#000000" stroke="none">
<path d="M1 1158 c1 -312 2 -337 14 -273 28 154 103 292 216 402 109 104 231
168 379 198 59 12 33 13 -272 14 l-338 1 1 -342z"/>
<path d="M872 1490 c72 -12 145 -38 233 -83 61 -31 102 -63 171 -132 78 -77
98 -104 137 -185 42 -88 70 -172 80 -245 2 -16 5 124 6 313 l1 342 -337 -1
c-205 -1 -319 -4 -291 -9z"/>
<path d="M648 1390 c-242 -44 -440 -214 -515 -444 -36 -113 -38 -267 -5 -376
55 -176 179 -324 333 -398 194 -93 387 -93 579 0 67 33 102 58 165 122 139
139 204 311 190 496 -4 47 -7 96 -8 110 -1 14 -4 27 -7 30 -3 3 -19 36 -34 74
-74 175 -243 322 -426 371 -69 19 -210 27 -272 15z m480 -376 c47 -19 98 -68
123 -116 l19 -38 -135 0 c-75 0 -145 -5 -156 -10 -13 -8 -19 -7 -19 0 0 12
-267 11 -292 -1 -17 -9 -118 -178 -118 -197 0 -8 89 -12 305 -12 265 0 306 2
317 16 7 9 27 30 43 46 17 17 24 28 18 24 -9 -5 -13 0 -13 13 0 19 -6 21 -75
21 -45 0 -75 4 -75 10 0 19 32 60 46 60 17 0 18 -12 3 -27 -20 -20 1 -33 56
-33 53 0 85 16 85 43 0 7 4 6 10 -3 6 -8 8 -50 5 -94 -7 -103 -40 -167 -110
-211 l-48 -30 -351 -3 c-300 -2 -357 -1 -392 13 -49 19 -111 76 -129 119 l-13
31 146 5 147 5 32 49 c18 27 30 53 27 58 -3 4 -39 8 -80 8 -41 0 -74 2 -74 5
0 4 7 19 15 35 17 33 52 43 40 13 -3 -10 -7 -22 -8 -28 -2 -12 76 -19 110 -11
24 7 58 60 48 76 -6 10 -219 13 -270 4 -24 -4 -37 -16 -58 -54 -15 -26 -27
-51 -27 -54 0 -3 34 -6 75 -6 66 0 75 -2 75 -18 0 -10 -9 -28 -21 -40 -24 -26
-44 -20 -29 8 16 29 14 30 -50 30 -52 0 -62 -3 -85 -27 l-25 -28 0 73 c0 139
38 216 129 264 l53 28 344 0 c289 0 351 -3 382 -16z m-318 -192 c0 -4 -20 -42
-45 -85 -41 -70 -65 -94 -65 -66 0 11 41 86 72 132 18 26 38 36 38 19z m260
-96 c0 -19 -46 -73 -55 -64 -4 3 -2 15 4 26 15 27 6 32 -61 32 -37 0 -57 4
-53 10 3 6 42 10 86 10 62 0 79 -3 79 -14z m-695 -326 c10 -43 22 -45 36 -5 7
19 17 35 21 35 11 0 10 -5 -9 -45 -21 -45 -39 -44 -58 1 -18 43 -18 44 -6 44
5 0 12 -13 16 -30z m152 -32 c-2 -13 -4 -3 -4 22 0 25 2 35 4 23 2 -13 2 -33
0 -45z m131 55 c-31 -5 -38 -23 -9 -23 22 0 45 -25 36 -40 -3 -5 -21 -9 -38
-9 -30 2 -31 2 -4 6 33 5 36 20 5 25 -15 2 -24 11 -26 26 -3 19 1 22 30 21 30
-2 31 -2 6 -6z m119 -55 c-2 -13 -4 -3 -4 22 0 25 2 35 4 23 2 -13 2 -33 0
-45z m169 37 c10 -40 -2 -57 -38 -53 -26 2 -34 8 -36 26 -6 37 5 52 37 52 24
0 32 -5 37 -25z m104 -15 c0 -22 -5 -40 -10 -40 -6 0 -9 12 -6 28 2 15 5 33 5
40 1 6 3 12 6 12 3 0 5 -18 5 -40z m70 -1 c0 -32 -3 -40 -17 -37 -9 2 -22 19
-30 38 -9 26 -10 30 0 17 36 -54 36 -54 37 -14 0 20 2 37 5 37 3 0 5 -18 5
-41z"/>
<path d="M884 406 c-10 -26 4 -48 28 -44 17 2 23 10 23 28 0 18 -6 26 -23 28
-13 2 -25 -3 -28 -12z"/>
<path d="M1490 657 c0 -44 -33 -156 -69 -233 -97 -208 -305 -367 -536 -409
-64 -12 -39 -13 273 -14 l342 -1 0 345 c0 190 -2 345 -5 345 -3 0 -5 -15 -5
-33z"/>
<path d="M1 343 l-1 -343 343 1 c313 1 336 2 272 14 -158 30 -271 90 -390 210
-122 121 -187 246 -215 413 -4 28 -8 -92 -9 -295z"/>
</g>
</svg>
